<svg width="27" height="25" viewBox="0 0 27 25" fill="none" xmlns="http://www.w3.org/2000/svg">
<path d="M13.0383 0C20.2454 0 26.087 5.59709 26.087 12.5025C26.087 19.4078 20.2454 25 13.0435 25C5.83646 25 3.38045e-06 19.4029 3.38045e-06 12.5025C-0.00512983 5.59709 5.83646 0 13.0383 0Z" fill="#8247E5"/>
<mask id="mask0_221_14400" style="mask-type:luminance" maskUnits="userSpaceOnUse" x="4" y="5" width="18" height="15">
<path d="M21.1989 5.33911H4.44922V19.5199H21.1989V5.33911Z" fill="white"/>
</mask>
<g mask="url(#mask0_221_14400)">
<path d="M17.1006 9.65796C16.7939 9.48793 16.4016 9.48793 16.0547 9.65796L13.6109 11.0571L11.9515 11.9461L9.55292 13.3404C9.24619 13.5104 8.85397 13.5104 8.50701 13.3404L6.63141 12.2376C6.32467 12.0676 6.10845 11.7275 6.10845 11.3486V9.23045C6.10845 8.89039 6.28445 8.55518 6.63141 8.34142L8.50701 7.28236C8.81375 7.11233 9.20596 7.11233 9.55292 7.28236L11.4285 8.38515C11.7353 8.55518 11.9515 8.89524 11.9515 9.27417V10.6733L13.6109 9.74055V8.30256C13.6109 7.96249 13.4349 7.62728 13.0879 7.41353L9.59818 5.42171C9.29144 5.25168 8.89923 5.25168 8.55227 5.42171L4.97706 7.45725C4.6301 7.62728 4.4541 7.96735 4.4541 8.30256V12.2813C4.4541 12.6214 4.6301 12.9566 4.97706 13.1704L8.51204 15.1622C8.81877 15.3322 9.21099 15.3322 9.55795 15.1622L11.9565 13.8068L13.6159 12.874L16.0144 11.5186C16.3212 11.3486 16.7134 11.3486 17.0604 11.5186L18.936 12.5777C19.2427 12.7477 19.4589 13.0878 19.4589 13.4667V15.5848C19.4589 15.9249 19.2829 16.2601 18.936 16.4739L17.1056 17.5329C16.7989 17.7029 16.4067 17.7029 16.0597 17.5329L14.1791 16.4739C13.8723 16.3038 13.6561 15.9638 13.6561 15.5848V14.2294L11.9967 15.1622V16.5613C11.9967 16.9014 12.1727 17.2366 12.5197 17.4503L16.0547 19.4421C16.3614 19.6122 16.7536 19.6122 17.1006 19.4421L20.6356 17.4503C20.9423 17.2803 21.1585 16.9402 21.1585 16.5613V12.5388C21.1585 12.1987 20.9825 11.8635 20.6356 11.6498L17.1006 9.65796Z" fill="white"/>
</g>
</svg>
