<svg width="41" height="40" viewBox="0 0 41 40" fill="none" xmlns="http://www.w3.org/2000/svg">
  <g clip-path="url(#clip0_4029_90533)">
    <path
      d="M40.5 20C40.5 25.3043 38.3929 30.3914 34.6421 34.1421C30.8914 37.8929 25.8043 40 20.5 40C15.1957 40 10.1086 37.8929 6.35786 34.1421C2.60714 30.3914 0.5 25.3043 0.5 20C0.5 14.6957 2.60714 9.60859 6.35786 5.85786C10.1086 2.10714 15.1957 0 20.5 0C25.8043 0 30.8914 2.10714 34.6421 5.85786C38.3929 9.60859 40.5 14.6957 40.5 20ZM21.75 11.25C21.75 10.9185 21.6183 10.6005 21.3839 10.3661C21.1495 10.1317 20.8315 10 20.5 10C20.1685 10 19.8505 10.1317 19.6161 10.3661C19.3817 10.6005 19.25 10.9185 19.25 11.25V18.75H11.75C11.4185 18.75 11.1005 18.8817 10.8661 19.1161C10.6317 19.3505 10.5 19.6685 10.5 20C10.5 20.3315 10.6317 20.6495 10.8661 20.8839C11.1005 21.1183 11.4185 21.25 11.75 21.25H19.25V28.75C19.25 29.0815 19.3817 29.3995 19.6161 29.6339C19.8505 29.8683 20.1685 30 20.5 30C20.8315 30 21.1495 29.8683 21.3839 29.6339C21.6183 29.3995 21.75 29.0815 21.75 28.75V21.25H29.25C29.5815 21.25 29.8995 21.1183 30.1339 20.8839C30.3683 20.6495 30.5 20.3315 30.5 20C30.5 19.6685 30.3683 19.3505 30.1339 19.1161C29.8995 18.8817 29.5815 18.75 29.25 18.75H21.75V11.25Z"
      fill="#374151" />
  </g>
  <defs>
    <clipPath id="clip0_4029_90533">
      <rect width="40" height="40" fill="white" transform="translate(0.5)" />
    </clipPath>
  </defs>
</svg>