<svg xmlns="http://www.w3.org/2000/svg" width="20" height="20" viewBox="0 0 20 20" fill="none">
  <path d="M6.34099 10.6608L6.34114 10.6609L12.3374 16.6572C12.422 16.7467 12.5234 16.8186 12.6359 16.8687L12.7716 16.5642L12.6359 16.8687C12.7504 16.9197 12.874 16.9471 12.9993 16.9494C13.1247 16.9516 13.2491 16.9285 13.3654 16.8816C13.4816 16.8346 13.5871 16.7648 13.6758 16.6761L13.4401 16.4404L13.6758 16.6761C13.7644 16.5875 13.8343 16.4819 13.8812 16.3657C13.9282 16.2495 13.9512 16.125 13.949 15.9997C13.9468 15.8744 13.9194 15.7508 13.8683 15.6363C13.8182 15.5238 13.7463 15.4223 13.6568 15.3378L8.32024 10.0012L13.6568 4.6646C13.7463 4.58004 13.8182 4.47859 13.8683 4.36609C13.9194 4.2516 13.9468 4.12801 13.949 4.0027C13.9512 3.87738 13.9282 3.7529 13.8812 3.63668C13.8343 3.52046 13.7644 3.41489 13.6758 3.32626C13.5871 3.23764 13.4816 3.16777 13.3654 3.12083C13.2491 3.07388 13.1247 3.05083 12.9993 3.05304C12.874 3.05525 12.7504 3.08268 12.6359 3.1337C12.5234 3.18382 12.422 3.25571 12.3374 3.3452L6.34114 9.3415L6.34099 9.34164C6.16621 9.51664 6.06803 9.75386 6.06803 10.0012C6.06803 10.2485 6.16621 10.4858 6.34099 10.6608Z" fill="#374151" stroke="#374151" stroke-width="0.666667"/>
</svg>