<svg xmlns="http://www.w3.org/2000/svg" width="24" height="24" viewBox="0 0 24 24" fill="none">
  <path
    d="M12.3937 4.45362C10.725 4.45081 8.63434 4.97816 6.57184 6.05159C4.51263 7.12503 2.88044 8.53128 1.92231 9.90472C0.963719 11.2735 0.7045 12.5485 1.17606 13.4578C1.64809 14.3625 2.84153 14.8828 4.5145 14.8828C6.18747 14.8875 8.27809 14.3578 10.3359 13.2891C12.3984 12.2157 14.0297 10.8047 14.9859 9.43597C15.9468 8.06722 16.2 6.79222 15.7312 5.88284C15.2578 4.97816 14.0672 4.45362 12.3937 4.45362ZM16.7015 7.74847C16.5375 8.46566 16.1812 9.20159 15.6797 9.91878C14.6203 11.4328 12.8906 12.9094 10.725 14.0344C8.55934 15.1641 6.36091 15.7313 4.51403 15.7313C3.64216 15.7313 2.83403 15.6 2.15294 15.3235L2.64934 16.2797C3.12184 17.1891 4.312 17.7094 5.98591 17.7094C7.65934 17.7094 9.74997 17.1844 11.8078 16.111C13.8703 15.0422 15.5015 13.6313 16.4578 12.2578C17.414 10.8891 17.6765 9.61409 17.2031 8.70941L16.7015 7.74847ZM18.0515 8.53597C18.5765 9.78753 18.1547 11.311 17.1515 12.7407C16.2656 14.011 14.9109 15.2438 13.2328 16.275C13.7531 16.3313 14.2968 16.3594 14.85 16.3594C17.1703 16.3594 19.2703 15.8625 20.7515 15.0891C22.2375 14.3157 23.0531 13.3032 23.0531 12.2813C23.0531 11.2594 22.2375 10.2469 20.7515 9.47347C19.9968 9.07972 19.0781 8.75628 18.0515 8.53597ZM23.0531 14.386C22.575 14.9438 21.9187 15.436 21.1453 15.8391C19.5047 16.6922 17.2922 17.2032 14.85 17.2032C13.8562 17.2032 12.9 17.1188 12.0047 16.9594C10.9172 17.5078 9.82497 17.9157 8.77497 18.1828C8.83122 18.2157 8.88747 18.2438 8.94841 18.2766C10.4297 19.05 12.5297 19.5469 14.85 19.5469C17.1703 19.5469 19.2703 19.05 20.7515 18.2766C22.2375 17.5032 23.0531 16.4907 23.0531 15.4688V14.386Z"
    fill="black" />
</svg>