<svg xmlns="http://www.w3.org/2000/svg" width="12" height="12" viewBox="0 0 12 12" fill="none">
  <g clip-path="url(#clip0_6_50642)">
    <path
      d="M2.5 7.5V4M2.5 4C2.89782 4 3.27936 3.84196 3.56066 3.56066C3.84196 3.27936 4 2.89782 4 2.5C4 2.10218 3.84196 1.72064 3.56066 1.43934C3.27936 1.15804 2.89782 1 2.5 1C2.10218 1 1.72064 1.15804 1.43934 1.43934C1.15804 1.72064 1 2.10218 1 2.5C1 2.89782 1.15804 3.27936 1.43934 3.56066C1.72064 3.84196 2.10218 4 2.5 4ZM2.565 7.5C2.67802 7.06389 2.93297 6.67779 3.28965 6.40258C3.64634 6.12737 4.08448 5.97869 4.535 5.98L6.25 5.985C7.56 5.99 8.675 5.15 9.085 3.98M2.625 11C3.05598 11 3.4693 10.8288 3.77405 10.524C4.0788 10.2193 4.25 9.80598 4.25 9.375C4.25 8.94402 4.0788 8.5307 3.77405 8.22595C3.4693 7.9212 3.05598 7.75 2.625 7.75C2.19402 7.75 1.7807 7.9212 1.47595 8.22595C1.1712 8.5307 1 8.94402 1 9.375C1 9.80598 1.1712 10.2193 1.47595 10.524C1.7807 10.8288 2.19402 11 2.625 11ZM9.5 4C9.89782 4 10.2794 3.84196 10.5607 3.56066C10.842 3.27936 11 2.89782 11 2.5C11 2.10218 10.842 1.72064 10.5607 1.43934C10.2794 1.15804 9.89782 1 9.5 1C9.10218 1 8.72064 1.15804 8.43934 1.43934C8.15804 1.72064 8 2.10218 8 2.5C8 2.89782 8.15804 3.27936 8.43934 3.56066C8.72064 3.84196 9.10218 4 9.5 4Z"
      stroke="#374151" stroke-linecap="round" stroke-linejoin="round" />
  </g>
  <defs>
    <clipPath id="clip0_6_50642">
      <rect width="12" height="12" fill="white" />
    </clipPath>
  </defs>
</svg>