<svg width="25" height="24" viewBox="0 0 25 24" fill="none" xmlns="http://www.w3.org/2000/svg">
<circle cx="13" cy="12.5" r="9" fill="#166534" stroke="#166534"/>
<path d="M15.7565 9.22317C15.8947 9.07845 16.0787 8.99844 16.2695 9.00002C16.4604 9.00161 16.6433 9.08467 16.7795 9.23169C16.9157 9.3787 16.9947 9.57816 16.9997 9.78798C17.0048 9.9978 16.9355 10.2016 16.8065 10.3563L12.8909 15.7413C12.8235 15.8211 12.7423 15.8851 12.6519 15.9295C12.5616 15.9739 12.464 15.9978 12.3651 15.9999C12.2661 16.0019 12.1678 15.9819 12.0761 15.9412C11.9843 15.9005 11.9009 15.8399 11.831 15.7629L9.23426 12.9074C9.16195 12.8333 9.10395 12.744 9.06372 12.6447C9.02349 12.5454 9.00186 12.4382 9.00011 12.3296C8.99837 12.2209 9.01655 12.1129 9.05357 12.0122C9.09059 11.9114 9.14569 11.8198 9.21558 11.743C9.28547 11.6661 9.36872 11.6055 9.46037 11.5648C9.55202 11.5241 9.65019 11.5041 9.74901 11.506C9.84784 11.508 9.9453 11.5317 10.0356 11.576C10.1259 11.6202 10.2071 11.684 10.2745 11.7635L12.3295 14.0222L15.7378 9.24692C15.744 9.23861 15.7505 9.23068 15.7574 9.22317H15.7565Z" fill="white"/>
</svg>
