<svg xmlns="http://www.w3.org/2000/svg" width="16" height="16" viewBox="0 0 16 16" fill="none">
  <rect x="5" y="5.99707" width="6" height="5" fill="white" />
  <path fill-rule="evenodd" clip-rule="evenodd"
    d="M8.344 1.44379C8.25112 1.35573 8.128 1.30664 8 1.30664C7.87201 1.30664 7.74889 1.35573 7.656 1.44379C6.24085 2.78771 4.35609 3.52467 2.40467 3.49712C2.29836 3.49574 2.19438 3.52828 2.10782 3.59002C2.02126 3.65176 1.95664 3.73948 1.92334 3.84045C1.64199 4.69789 1.49908 5.5947 1.5 6.49712C1.5 10.4585 4.20934 13.7858 7.87534 14.7291C7.95711 14.7502 8.0429 14.7502 8.12467 14.7291C11.7907 13.7858 14.5 10.4585 14.5 6.49712C14.5 5.57045 14.3513 4.67712 14.0767 3.84045C14.0435 3.73936 13.9789 3.65149 13.8923 3.58962C13.8058 3.52775 13.7017 3.49512 13.5953 3.49645L13.5 3.49712C11.5027 3.49712 9.68867 2.71712 8.344 1.44379ZM10.4067 6.78779C10.4467 6.73449 10.4756 6.67373 10.4918 6.60908C10.508 6.54444 10.5111 6.47721 10.5009 6.41135C10.4907 6.3455 10.4675 6.28233 10.4326 6.22558C10.3976 6.16883 10.3517 6.11964 10.2975 6.08089C10.2433 6.04214 10.1819 6.01461 10.1169 5.99994C10.0519 5.98526 9.98459 5.98373 9.91899 5.99543C9.85338 6.00712 9.79078 6.03182 9.73486 6.06806C9.67893 6.1043 9.63082 6.15135 9.59334 6.20645L7.436 9.22645L6.35334 8.14378C6.25855 8.05547 6.13319 8.00738 6.00366 8.00967C5.87412 8.01195 5.75053 8.06443 5.65892 8.15604C5.56732 8.24765 5.51484 8.37124 5.51255 8.50077C5.51027 8.6303 5.55835 8.75567 5.64667 8.85045L7.14667 10.3505C7.198 10.4017 7.25987 10.4412 7.328 10.4662C7.39612 10.4912 7.46887 10.501 7.54118 10.4951C7.61349 10.4891 7.68364 10.4675 7.74676 10.4317C7.80987 10.3959 7.86444 10.3468 7.90667 10.2878L10.4067 6.78779Z"
    fill="#22C55E" />
</svg>