<svg xmlns="http://www.w3.org/2000/svg" width="15" height="14" viewBox="0 0 15 14" fill="none">
  <path
    d="M9.83341 7.52484V9.97484C9.83341 12.0165 9.01675 12.8332 6.97508 12.8332H4.52508C2.48341 12.8332 1.66675 12.0165 1.66675 9.97484V7.52484C1.66675 5.48317 2.48341 4.6665 4.52508 4.6665H6.97508C9.01675 4.6665 9.83341 5.48317 9.83341 7.52484Z"
    stroke="white" stroke-width="1.5" stroke-linecap="round" stroke-linejoin="round" />
  <path
    d="M13.3334 4.02484V6.47484C13.3334 8.5165 12.5167 9.33317 10.4751 9.33317H9.83341V7.52484C9.83341 5.48317 9.01675 4.6665 6.97508 4.6665H5.16675V4.02484C5.16675 1.98317 5.98341 1.1665 8.02508 1.1665H10.4751C12.5167 1.1665 13.3334 1.98317 13.3334 4.02484Z"
    stroke="white" stroke-width="1.5" stroke-linecap="round" stroke-linejoin="round" />
</svg>