<svg xmlns="http://www.w3.org/2000/svg" width="160" height="160" viewBox="0 0 160 160" fill="none">
  <path
    d="M146.666 79.9973C146.666 43.2639 116.733 13.3306 79.9992 13.3306C43.2659 13.3306 13.3325 43.2639 13.3325 79.9973C13.3325 99.3306 21.6659 116.731 34.8659 128.931C34.8659 128.997 34.8659 128.997 34.7992 129.064C35.4659 129.731 36.2659 130.264 36.9325 130.864C37.3325 131.197 37.6659 131.531 38.0659 131.797C39.2659 132.797 40.5992 133.731 41.8659 134.664L43.1992 135.597C44.4659 136.464 45.7992 137.264 47.1992 137.997C47.6659 138.264 48.1992 138.597 48.6659 138.864C49.9992 139.597 51.3992 140.264 52.8659 140.864C53.3992 141.131 53.9325 141.397 54.4659 141.597C55.9325 142.197 57.3992 142.731 58.8659 143.197C59.3992 143.397 59.9325 143.597 60.4659 143.731C62.0659 144.197 63.6659 144.597 65.2659 144.997C65.7325 145.131 66.1992 145.264 66.7325 145.331C68.5992 145.731 70.4659 145.997 72.3992 146.197C72.6659 146.197 72.9325 146.264 73.1992 146.331C75.4659 146.531 77.7325 146.664 79.9992 146.664C82.2659 146.664 84.5325 146.531 86.7325 146.331C86.9992 146.331 87.2659 146.264 87.5325 146.197C89.4659 145.997 91.3325 145.731 93.1992 145.331C93.6659 145.264 94.1325 145.064 94.6659 144.997C96.2659 144.597 97.9325 144.264 99.4659 143.731C99.9992 143.531 100.533 143.331 101.066 143.197C102.533 142.664 104.066 142.197 105.466 141.597C105.999 141.397 106.533 141.131 107.066 140.864C108.466 140.264 109.866 139.597 111.266 138.864C111.799 138.597 112.266 138.264 112.733 137.997C114.066 137.197 115.399 136.464 116.733 135.597C117.199 135.331 117.599 134.997 118.066 134.664C119.399 133.731 120.666 132.797 121.866 131.797C122.266 131.464 122.599 131.131 122.999 130.864C123.733 130.264 124.466 129.664 125.133 129.064C125.133 128.997 125.133 128.997 125.066 128.931C138.333 116.731 146.666 99.3306 146.666 79.9973ZM112.933 113.131C94.8659 100.997 65.2659 100.997 47.0659 113.131C44.1325 115.064 41.7325 117.331 39.7325 119.797C29.2313 109.212 23.3368 94.9075 23.3325 79.9973C23.3325 48.7306 48.7325 23.3306 79.9992 23.3306C111.266 23.3306 136.666 48.7306 136.666 79.9973C136.666 95.4639 130.399 109.531 120.266 119.797C118.333 117.331 115.866 115.064 112.933 113.131Z"
    fill="#E5E7EB" />
  <path
    d="M80 46.2007C66.2 46.2007 55 57.4007 55 71.2007C55 84.734 65.6 95.734 79.6667 96.134H80.8667C87.3381 95.9212 93.4734 93.2013 97.9766 88.5488C102.48 83.8963 104.998 77.6756 105 71.2007C105 57.4007 93.8 46.2007 80 46.2007Z"
    fill="#E5E7EB" />
</svg>