<svg width="30" height="24" viewBox="0 0 30 24" fill="none" xmlns="http://www.w3.org/2000/svg">
<path d="M25.3963 2.69434C23.4842 1.81699 21.4337 1.1706 19.2899 0.800381C19.2508 0.793236 19.2118 0.811092 19.1917 0.846805C18.928 1.31582 18.6359 1.9277 18.4314 2.40863C16.1255 2.06342 13.8315 2.06342 11.5729 2.40863C11.3683 1.91701 11.0656 1.31582 10.8007 0.846805C10.7806 0.812284 10.7416 0.794428 10.7026 0.800381C8.55989 1.16941 6.50945 1.81581 4.59617 2.69434C4.57961 2.70149 4.56541 2.7134 4.55599 2.72887C0.66674 8.53932 -0.398688 14.207 0.123975 19.8043C0.12634 19.8317 0.141712 19.8579 0.162998 19.8745C2.72901 21.759 5.21463 22.903 7.6541 23.6613C7.69314 23.6732 7.73451 23.6589 7.75935 23.6267C8.33641 22.8387 8.8508 22.0078 9.29185 21.134C9.31787 21.0828 9.29303 21.0221 9.23983 21.0019C8.42391 20.6924 7.647 20.315 6.89966 19.8865C6.84055 19.8519 6.83582 19.7674 6.8902 19.7269C7.04747 19.6091 7.20477 19.4864 7.35494 19.3626C7.38211 19.34 7.41997 19.3353 7.45192 19.3495C12.3616 21.5911 17.6769 21.5911 22.5287 19.3495C22.5606 19.3341 22.5985 19.3389 22.6268 19.3615C22.7771 19.4853 22.9343 19.6091 23.0928 19.7269C23.1472 19.7674 23.1436 19.8519 23.0845 19.8865C22.3372 20.3233 21.5602 20.6924 20.7431 21.0007C20.6899 21.0209 20.6663 21.0828 20.6923 21.134C21.1428 22.0066 21.6572 22.8375 22.2236 23.6256C22.2473 23.6589 22.2898 23.6732 22.3289 23.6613C24.7802 22.903 27.2658 21.759 29.8318 19.8745C29.8543 19.8579 29.8685 19.8329 29.8708 19.8055C30.4964 13.3343 28.8231 7.71318 25.4353 2.73005C25.427 2.7134 25.4128 2.70149 25.3963 2.69434ZM10.025 16.3961C8.54687 16.3961 7.32892 15.039 7.32892 13.3724C7.32892 11.7058 8.52325 10.3488 10.025 10.3488C11.5386 10.3488 12.7448 11.7178 12.7211 13.3724C12.7211 15.039 11.5268 16.3961 10.025 16.3961ZM19.9934 16.3961C18.5153 16.3961 17.2974 15.039 17.2974 13.3724C17.2974 11.7058 18.4917 10.3488 19.9934 10.3488C21.507 10.3488 22.7132 11.7178 22.6896 13.3724C22.6896 15.039 21.507 16.3961 19.9934 16.3961Z" fill="#5865F2"/>
</svg>
