<svg xmlns="http://www.w3.org/2000/svg" width="20" height="20" viewBox="0 0 20 20" fill="none">
  <path fill-rule="evenodd" clip-rule="evenodd"
    d="M6.25 3.125C5.91848 3.125 5.60054 3.2567 5.36612 3.49112C5.1317 3.72554 5 4.04348 5 4.375V15.625C5 15.9565 5.1317 16.2745 5.36612 16.5089C5.60054 16.7433 5.91848 16.875 6.25 16.875H11.25C11.5815 16.875 11.8995 16.7433 12.1339 16.5089C12.3683 16.2745 12.5 15.9565 12.5 15.625V12.5C12.5 12.3342 12.5658 12.1753 12.6831 12.0581C12.8003 11.9408 12.9592 11.875 13.125 11.875C13.2908 11.875 13.4497 11.9408 13.5669 12.0581C13.6842 12.1753 13.75 12.3342 13.75 12.5V15.625C13.75 16.288 13.4866 16.9239 13.0178 17.3928C12.5489 17.8616 11.913 18.125 11.25 18.125H6.25C5.58696 18.125 4.95107 17.8616 4.48223 17.3928C4.01339 16.9239 3.75 16.288 3.75 15.625V4.375C3.75 3.71196 4.01339 3.07607 4.48223 2.60723C4.95107 2.13839 5.58696 1.875 6.25 1.875H11.25C11.913 1.875 12.5489 2.13839 13.0178 2.60723C13.4866 3.07607 13.75 3.71196 13.75 4.375V7.5C13.75 7.66576 13.6842 7.82473 13.5669 7.94194C13.4497 8.05915 13.2908 8.125 13.125 8.125C12.9592 8.125 12.8003 8.05915 12.6831 7.94194C12.5658 7.82473 12.5 7.66576 12.5 7.5V4.375C12.5 4.04348 12.3683 3.72554 12.1339 3.49112C11.8995 3.2567 11.5815 3.125 11.25 3.125H6.25ZM10.4417 7.05833C10.5587 7.17552 10.6244 7.33437 10.6244 7.5C10.6244 7.66563 10.5587 7.82448 10.4417 7.94167L9.00833 9.375H18.125C18.2908 9.375 18.4497 9.44085 18.5669 9.55806C18.6842 9.67527 18.75 9.83424 18.75 10C18.75 10.1658 18.6842 10.3247 18.5669 10.4419C18.4497 10.5592 18.2908 10.625 18.125 10.625H9.00833L10.4417 12.0583C10.5031 12.1156 10.5523 12.1846 10.5865 12.2612C10.6206 12.3379 10.639 12.4206 10.6405 12.5046C10.642 12.5885 10.6265 12.6718 10.5951 12.7497C10.5637 12.8275 10.5169 12.8982 10.4575 12.9575C10.3982 13.0169 10.3275 13.0637 10.2497 13.0951C10.1718 13.1265 10.0885 13.142 10.0046 13.1405C9.92065 13.139 9.83788 13.1206 9.76122 13.0865C9.68455 13.0523 9.61555 13.0031 9.55833 12.9417L7.05833 10.4417C6.94129 10.3245 6.87555 10.1656 6.87555 10C6.87555 9.83437 6.94129 9.67552 7.05833 9.55833L9.55833 7.05833C9.67552 6.94129 9.83437 6.87555 10 6.87555C10.1656 6.87555 10.3245 6.94129 10.4417 7.05833Z"
    fill="url(#paint0_linear_540_1680)" />
  <defs>
    <linearGradient id="paint0_linear_540_1680" x1="11.25" y1="1.875" x2="11.25" y2="18.125"
      gradientUnits="userSpaceOnUse">
      <stop stop-color="#ED5372" />
      <stop offset="1" stop-color="#BD2846" />
      <stop offset="1" stop-color="#E33659" />
    </linearGradient>
  </defs>
</svg>