<svg width="22" height="22" viewBox="0 0 22 22" fill="none" xmlns="http://www.w3.org/2000/svg">
<path fill-rule="evenodd" clip-rule="evenodd" d="M5.19586 12.1952C5.25779 12.1331 5.33135 12.0839 5.41235 12.0503C5.49334 12.0167 5.58017 11.9993 5.66786 11.9993C5.75555 11.9993 5.84238 12.0167 5.92337 12.0503C6.00436 12.0839 6.07793 12.1331 6.13986 12.1952L11.0012 17.0579L15.8625 12.1952C15.9877 12.07 16.1575 11.9997 16.3345 11.9997C16.5116 11.9997 16.6813 12.07 16.8065 12.1952C16.9317 12.3204 17.002 12.4902 17.002 12.6672C17.002 12.8442 16.9317 13.014 16.8065 13.1392L11.4732 18.4725C11.4113 18.5346 11.3377 18.5839 11.2567 18.6175C11.1757 18.6511 11.0889 18.6684 11.0012 18.6684C10.9135 18.6684 10.8267 18.6511 10.7457 18.6175C10.6647 18.5839 10.5911 18.5346 10.5292 18.4725L5.19586 13.1392C5.13377 13.0773 5.08452 13.0037 5.05091 12.9227C5.0173 12.8417 5 12.7549 5 12.6672C5 12.5795 5.0173 12.4927 5.05091 12.4117C5.08452 12.3307 5.13377 12.2571 5.19586 12.1952ZM5.19586 9.13921C5.25779 9.20129 5.33135 9.25055 5.41235 9.28416C5.49334 9.31777 5.58017 9.33507 5.66786 9.33507C5.75555 9.33507 5.84238 9.31777 5.92337 9.28416C6.00436 9.25055 6.07793 9.20129 6.13986 9.13921L11.0012 4.27654L15.8625 9.13921C15.9877 9.26439 16.1575 9.33472 16.3345 9.33472C16.5116 9.33472 16.6813 9.26439 16.8065 9.13921C16.9317 9.01403 17.002 8.84424 17.002 8.66721C17.002 8.49017 16.9317 8.32039 16.8065 8.19521L11.4732 2.86187C11.4113 2.79979 11.3377 2.75053 11.2567 2.71692C11.1757 2.68332 11.0889 2.66602 11.0012 2.66602C10.9135 2.66602 10.8267 2.68332 10.7457 2.71692C10.6647 2.75053 10.5911 2.79979 10.5292 2.86187L5.19586 8.19521C5.13377 8.25714 5.08452 8.3307 5.05091 8.4117C5.0173 8.49269 5 8.57952 5 8.66721C5 8.7549 5.0173 8.84173 5.05091 8.92272C5.08452 9.00371 5.13377 9.07728 5.19586 9.13921Z" fill="#374151"/>
</svg>
