<svg xmlns="http://www.w3.org/2000/svg" width="12" height="13" viewBox="0 0 12 13" fill="none">
  <path
    d="M10.8656 1.6345C10.6195 1.3884 10.2857 1.25015 9.93763 1.25015C9.58957 1.25015 9.25576 1.3884 9.00963 1.6345L8.43113 2.213L10.2871 4.069L10.8656 3.4905C11.1117 3.24436 11.25 2.91056 11.25 2.5625C11.25 2.21444 11.1117 1.88063 10.8656 1.6345ZM9.75663 4.5995L7.90063 2.7435L1.82563 8.8185C1.51705 9.12692 1.29022 9.50738 1.16563 9.9255L0.765627 11.268C0.746315 11.3328 0.744875 11.4016 0.761459 11.4671C0.778042 11.5327 0.812033 11.5925 0.859835 11.6403C0.907637 11.6881 0.967471 11.7221 1.03301 11.7387C1.09854 11.7552 1.16734 11.7538 1.23213 11.7345L2.57463 11.3345C2.99274 11.2099 3.37321 10.9831 3.68163 10.6745L9.75663 4.5995Z"
    fill="#374151" />
</svg>