<svg xmlns="http://www.w3.org/2000/svg" width="20" height="20" viewBox="0 0 20 20" fill="none">
  <path
    d="M10 18.125C14.4873 18.125 18.125 14.4873 18.125 10C18.125 5.51269 14.4873 1.875 10 1.875C5.51269 1.875 1.875 5.51269 1.875 10C1.875 14.4873 5.51269 18.125 10 18.125Z"
    fill="#627EEA" />
  <path d="M10.2539 3.90625V8.41076L14.061 10.1122L10.2539 3.90625Z" fill="white" fill-opacity="0.602" />
  <path d="M10.2543 3.90625L6.44727 10.1122L10.2543 8.41076V3.90625Z" fill="white" />
  <path d="M10.2539 13.0304V16.0911L14.0632 10.8203L10.2539 13.0304Z" fill="white" fill-opacity="0.602" />
  <path d="M10.2543 16.0911V13.0304L6.44727 10.8203L10.2543 16.0911Z" fill="white" />
  <path d="M10.2539 12.3177L14.061 10.1077L10.2539 8.40625V12.3177Z" fill="white" fill-opacity="0.2" />
  <path d="M6.44727 10.1077L10.2543 12.3177V8.40625L6.44727 10.1077Z" fill="white" fill-opacity="0.602" />
</svg>