<svg width="16" height="16" viewBox="0 0 16 16" fill="none" xmlns="http://www.w3.org/2000/svg">
<path fill-rule="evenodd" clip-rule="evenodd" d="M5.99964 3C6.10828 3.00002 6.21396 3.03543 6.30069 3.10087C6.38741 3.1663 6.45047 3.2582 6.48031 3.36267L7.02231 5.26C7.13901 5.66861 7.35794 6.04073 7.65842 6.34122C7.95891 6.6417 8.33103 6.86063 8.73964 6.97733L10.637 7.51933C10.7414 7.54924 10.8332 7.61232 10.8986 7.69904C10.9639 7.78576 10.9993 7.8914 10.9993 8C10.9993 8.1086 10.9639 8.21424 10.8986 8.30096C10.8332 8.38768 10.7414 8.45076 10.637 8.48067L8.73964 9.02267C8.33103 9.13937 7.95891 9.3583 7.65842 9.65878C7.35794 9.95927 7.13901 10.3314 7.02231 10.74L6.48031 12.6373C6.4504 12.7417 6.38732 12.8336 6.3006 12.8989C6.21388 12.9643 6.10824 12.9996 5.99964 12.9996C5.89104 12.9996 5.7854 12.9643 5.69868 12.8989C5.61196 12.8336 5.54888 12.7417 5.51897 12.6373L4.97697 10.74C4.86027 10.3314 4.64134 9.95927 4.34086 9.65878C4.04037 9.3583 3.66825 9.13937 3.25964 9.02267L1.36231 8.48067C1.25791 8.45076 1.16609 8.38768 1.10072 8.30096C1.03536 8.21424 1 8.1086 1 8C1 7.8914 1.03536 7.78576 1.10072 7.69904C1.16609 7.61232 1.25791 7.54924 1.36231 7.51933L3.25964 6.97733C3.66825 6.86063 4.04037 6.6417 4.34086 6.34122C4.64134 6.04073 4.86027 5.66861 4.97697 5.26L5.51897 3.36267C5.54881 3.2582 5.61187 3.1663 5.69859 3.10087C5.78532 3.03543 5.891 3.00002 5.99964 3ZM11.9996 1C12.1112 0.999938 12.2195 1.03718 12.3075 1.10579C12.3954 1.17441 12.4579 1.27046 12.485 1.37867L12.657 2.06933C12.8143 2.696 13.3036 3.18533 13.9303 3.34267L14.621 3.51467C14.7294 3.54152 14.8257 3.6039 14.8945 3.69187C14.9634 3.77983 15.0008 3.88831 15.0008 4C15.0008 4.11169 14.9634 4.22017 14.8945 4.30813C14.8257 4.3961 14.7294 4.45848 14.621 4.48533L13.9303 4.65733C13.3036 4.81467 12.8143 5.304 12.657 5.93067L12.485 6.62133C12.4581 6.72975 12.3957 6.82605 12.3078 6.89489C12.2198 6.96372 12.1113 7.00112 11.9996 7.00112C11.8879 7.00112 11.7795 6.96372 11.6915 6.89489C11.6035 6.82605 11.5412 6.72975 11.5143 6.62133L11.3423 5.93067C11.2654 5.62295 11.1063 5.34193 10.882 5.11765C10.6577 4.89337 10.3767 4.73426 10.069 4.65733L9.37831 4.48533C9.26989 4.45848 9.17359 4.3961 9.10475 4.30813C9.03592 4.22017 8.99852 4.11169 8.99852 4C8.99852 3.88831 9.03592 3.77983 9.10475 3.69187C9.17359 3.6039 9.26989 3.54152 9.37831 3.51467L10.069 3.34267C10.3767 3.26574 10.6577 3.10663 10.882 2.88235C11.1063 2.65807 11.2654 2.37705 11.3423 2.06933L11.5143 1.37867C11.5414 1.27046 11.6038 1.17441 11.6918 1.10579C11.7797 1.03718 11.8881 0.999938 11.9996 1ZM10.9996 10C11.1047 9.99994 11.207 10.0329 11.2922 10.0943C11.3774 10.1557 11.4411 10.2424 11.4743 10.342L11.737 11.1307C11.837 11.4287 12.0703 11.6633 12.369 11.7627L13.1576 12.026C13.257 12.0593 13.3433 12.123 13.4044 12.2081C13.4656 12.2931 13.4985 12.3952 13.4985 12.5C13.4985 12.6048 13.4656 12.7069 13.4044 12.7919C13.3433 12.877 13.257 12.9407 13.1576 12.974L12.369 13.2373C12.071 13.3373 11.8363 13.5707 11.737 13.8693L11.4736 14.658C11.4403 14.7573 11.3766 14.8436 11.2916 14.9048C11.2065 14.966 11.1044 14.9989 10.9996 14.9989C10.8949 14.9989 10.7928 14.966 10.7077 14.9048C10.6227 14.8436 10.559 14.7573 10.5256 14.658L10.2623 13.8693C10.2132 13.7222 10.1305 13.5885 10.0208 13.4788C9.91115 13.3691 9.77745 13.2864 9.63031 13.2373L8.84164 12.974C8.74233 12.9407 8.656 12.877 8.59484 12.7919C8.53368 12.7069 8.50077 12.6048 8.50077 12.5C8.50077 12.3952 8.53368 12.2931 8.59484 12.2081C8.656 12.123 8.74233 12.0593 8.84164 12.026L9.63031 11.7627C9.92831 11.6627 10.163 11.4293 10.2623 11.1307L10.5256 10.342C10.5588 10.2425 10.6224 10.1559 10.7075 10.0945C10.7925 10.0331 10.8947 10.0001 10.9996 10Z" fill="url(#paint0_linear_1723_74745)"/>
<defs>
<linearGradient id="paint0_linear_1723_74745" x1="8.00038" y1="1" x2="8.00038" y2="14.9989" gradientUnits="userSpaceOnUse">
<stop stop-color="#ED5372"/>
<stop offset="1" stop-color="#BD2846"/>
<stop offset="1" stop-color="#E33659"/>
</linearGradient>
</defs>
</svg>
