<svg xmlns="http://www.w3.org/2000/svg" width="16" height="16" viewBox="0 0 16 16" fill="none">
  <path
    d="M10.7455 8.49886L10.7454 8.49897L6.24814 12.9962C6.18472 13.0633 6.10863 13.1172 6.02426 13.1548C5.9384 13.1931 5.8457 13.2137 5.75172 13.2153C5.65773 13.217 5.56437 13.1997 5.4772 13.1645C5.39004 13.1293 5.31086 13.0769 5.24439 13.0104C5.17792 12.9439 5.12552 12.8647 5.09031 12.7776C5.05511 12.6904 5.03782 12.5971 5.03948 12.5031C5.04113 12.4091 5.06171 12.3164 5.09997 12.2305C5.13756 12.1461 5.19147 12.0701 5.25858 12.0066L9.26104 8.00419L5.25859 4.00174C5.19147 3.93832 5.13756 3.86224 5.09997 3.77787C5.06171 3.692 5.04113 3.59931 5.03948 3.50532C5.03782 3.41133 5.05511 3.31797 5.09031 3.23081C5.12552 3.14364 5.17792 3.06446 5.24439 2.99799C5.31086 2.93152 5.39004 2.87912 5.4772 2.84392C5.56436 2.80871 5.65772 2.79142 5.75171 2.79308C5.8457 2.79474 5.9384 2.81531 6.02426 2.85357C6.10864 2.89116 6.18472 2.94508 6.24814 3.01219L10.7454 7.50942L10.7455 7.50953C10.8766 7.64078 10.9502 7.81869 10.9502 8.00419C10.9502 8.18969 10.8766 8.36761 10.7455 8.49886Z"
    fill="white" stroke="white" stroke-width="0.5" />
</svg>