<svg width="30" height="30" viewBox="0 0 30 30" fill="none" xmlns="http://www.w3.org/2000/svg">
<path fill-rule="evenodd" clip-rule="evenodd" d="M15.0005 0.125C11.4396 0.126848 7.99538 1.38807 5.2838 3.68315C2.57222 5.97823 0.770093 9.15751 0.199644 12.6525C-0.370804 16.1475 0.327622 19.7303 2.17005 22.7602C4.01248 25.7902 6.87876 28.0697 10.2564 29.1912C11.0015 29.3295 11.2822 28.8677 11.2822 28.475C11.2822 28.0823 11.2673 26.9438 11.2623 25.699C7.08946 26.6005 6.2077 23.9381 6.2077 23.9381C5.52712 22.2093 4.54351 21.7549 4.54351 21.7549C3.18236 20.8312 4.64536 20.8485 4.64536 20.8485C6.15306 20.9547 6.94541 22.3871 6.94541 22.3871C8.28172 24.6667 10.4551 24.0073 11.3095 23.622C11.4437 22.6563 11.8336 21.9994 12.2633 21.6264C8.93 21.251 5.42776 19.9717 5.42776 14.2568C5.4071 12.7746 5.96024 11.3413 6.97273 10.2534C6.81873 9.87795 6.30456 8.36154 7.11927 6.30179C7.11927 6.30179 8.37859 5.90169 11.245 7.83055C13.7035 7.16203 16.2975 7.16203 18.7561 7.83055C21.62 5.90169 22.8768 6.30179 22.8768 6.30179C23.694 8.3566 23.1799 9.87301 23.0259 10.2534C24.0416 11.3415 24.5959 12.7773 24.5733 14.2617C24.5733 19.989 21.0636 21.251 17.7253 21.619C18.2618 22.0833 18.7412 22.9897 18.7412 24.3827C18.7412 26.3782 18.7238 27.9835 18.7238 28.475C18.7238 28.8726 18.9946 29.3369 19.7546 29.1912C23.1326 28.0696 25.9992 25.7896 27.8416 22.7592C29.684 19.7287 30.3821 16.1454 29.811 12.6501C29.2399 9.15475 27.4368 5.97544 24.7244 3.68076C22.0119 1.38607 18.5669 0.125676 15.0055 0.125H15.0005Z" fill="#191717"/>
</svg>
