<svg xmlns="http://www.w3.org/2000/svg" width="19" height="19" viewBox="0 0 19 19" fill="none">
  <g clip-path="url(#clip0_2999_42270)">
    <path fill-rule="evenodd" clip-rule="evenodd"
      d="M9.50625 0.757812C7.37137 0.75892 5.3065 1.51505 3.68084 2.89101C2.05519 4.26696 0.974777 6.17301 0.63278 8.26833C0.290783 10.3636 0.709505 12.5116 1.81408 14.3281C2.91866 16.1447 4.63706 17.5113 6.66201 18.1837C7.10875 18.2666 7.27702 17.9897 7.27702 17.7543C7.27702 17.5188 7.26809 16.8363 7.26511 16.09C4.76338 16.6304 4.23474 15.0343 4.23474 15.0343C3.82672 13.9978 3.23702 13.7254 3.23702 13.7254C2.42098 13.1716 3.29808 13.182 3.29808 13.182C4.20198 13.2457 4.67702 14.1045 4.67702 14.1045C5.47817 15.4711 6.78114 15.0758 7.2934 14.8448C7.37382 14.2658 7.60761 13.872 7.86523 13.6484C5.86682 13.4233 3.76715 12.6564 3.76715 9.23013C3.75477 8.34155 4.08639 7.48224 4.69339 6.82999C4.60107 6.60493 4.29281 5.6958 4.78125 4.46094C4.78125 4.46094 5.53624 4.22107 7.25469 5.37746C8.72867 4.97667 10.2838 4.97667 11.7578 5.37746C13.4748 4.22107 14.2283 4.46094 14.2283 4.46094C14.7182 5.69284 14.4099 6.60196 14.3176 6.82999C14.9265 7.48235 15.2589 8.34316 15.2453 9.23309C15.2453 12.6667 13.1412 13.4233 11.1398 13.644C11.4615 13.9223 11.7489 14.4657 11.7489 15.3008C11.7489 16.4972 11.7385 17.4596 11.7385 17.7543C11.7385 17.9927 11.9008 18.271 12.3564 18.1837C14.3816 17.5112 16.1002 16.1443 17.2048 14.3275C18.3093 12.5107 18.7278 10.3624 18.3854 8.26687C18.043 6.17135 16.9621 4.26528 15.3359 2.88957C13.7097 1.51385 11.6444 0.758218 9.50922 0.757812H9.50625Z"
      fill="white" />
    <path
      d="M3.91824 13.5974C3.89888 13.6418 3.8274 13.6551 3.76933 13.624C3.71125 13.5929 3.66807 13.5352 3.68892 13.4893C3.70977 13.4434 3.77976 13.4316 3.83783 13.4626C3.89591 13.4937 3.94058 13.553 3.91824 13.5974Z"
      fill="white" />
    <path
      d="M4.283 13.9983C4.25216 14.0137 4.21688 14.018 4.18319 14.0105C4.14951 14.0029 4.11952 13.9839 4.09835 13.9568C4.04027 13.8946 4.02835 13.8088 4.07303 13.7703C4.1177 13.7318 4.19812 13.7495 4.2562 13.8117C4.31427 13.8739 4.32767 13.9598 4.283 13.9983Z"
      fill="white" />
    <path
      d="M4.63723 14.5156C4.58214 14.5541 4.48832 14.5156 4.4362 14.4386C4.42178 14.4248 4.41033 14.4083 4.4025 14.39C4.39467 14.3716 4.39062 14.3519 4.39062 14.332C4.39062 14.3121 4.39467 14.2924 4.4025 14.2741C4.41033 14.2558 4.42178 14.2392 4.4362 14.2254C4.49129 14.1884 4.58511 14.2254 4.63723 14.3009C4.68935 14.3765 4.69084 14.4771 4.63723 14.5156Z"
      fill="white" />
    <path
      d="M5.11825 15.0128C5.06911 15.0675 4.96934 15.0527 4.88744 14.9787C4.80554 14.9047 4.78617 14.804 4.83531 14.7507C4.88445 14.6974 4.98423 14.7122 5.06911 14.7847C5.15399 14.8573 5.17037 14.9595 5.11825 15.0128Z"
      fill="white" />
    <path
      d="M5.79312 15.2978C5.77078 15.3674 5.66952 15.3985 5.56826 15.3689C5.467 15.3393 5.39999 15.2564 5.41935 15.1853C5.43871 15.1142 5.54146 15.0817 5.64421 15.1142C5.74696 15.1468 5.81248 15.2253 5.79312 15.2978Z"
      fill="white" />
    <path
      d="M6.52923 15.3491C6.52923 15.4216 6.44585 15.4838 6.33863 15.4853C6.23141 15.4868 6.14355 15.4276 6.14355 15.355C6.14355 15.2824 6.22694 15.2203 6.33416 15.2188C6.44138 15.2173 6.52923 15.275 6.52923 15.3491Z"
      fill="white" />
    <path
      d="M7.21332 15.235C7.22672 15.3076 7.15226 15.3831 7.04505 15.4009C6.93783 15.4186 6.84401 15.3757 6.83061 15.3046C6.81721 15.2335 6.89464 15.1566 6.99888 15.1373C7.10312 15.1181 7.19992 15.1625 7.21332 15.235Z"
      fill="white" />
  </g>
  <defs>
    <clipPath id="clip0_2999_42270">
      <rect width="17.9857" height="17.9857" fill="white" transform="translate(0.512695 0.382812)" />
    </clipPath>
  </defs>
</svg>