<svg width="32" height="32" viewBox="0 0 32 32" fill="none" xmlns="http://www.w3.org/2000/svg">
  <path d="M27.5308 3.5625L17.5371 10.985L19.3852 6.60581L27.5308 3.5625Z" fill="#E2761B" stroke="#E2761B"
    stroke-linecap="round" stroke-linejoin="round" />
  <path d="M4.45996 3.5625L14.3733 11.0553L12.6156 6.60582L4.45996 3.5625Z" fill="#E4761B" stroke="#E4761B"
    stroke-linecap="round" stroke-linejoin="round" />
  <path d="M23.9351 20.7676L21.2734 24.8454L26.9683 26.4123L28.6055 20.858L23.9351 20.7676Z" fill="#E4761B"
    stroke="#E4761B" stroke-linecap="round" stroke-linejoin="round" />
  <path d="M3.40527 20.858L5.03239 26.4123L10.7273 24.8454L8.06566 20.7676L3.40527 20.858Z" fill="#E4761B"
    stroke="#E4761B" stroke-linecap="round" stroke-linejoin="round" />
  <path d="M10.4063 13.8771L8.81934 16.2776L14.4741 16.5287L14.2732 10.4521L10.4063 13.8771Z" fill="#E4761B"
    stroke="#E4761B" stroke-linecap="round" stroke-linejoin="round" />
  <path d="M21.5848 13.8781L17.6677 10.3828L17.5371 16.5297L23.1818 16.2786L21.5848 13.8781Z" fill="#E4761B"
    stroke="#E4761B" stroke-linecap="round" stroke-linejoin="round" />
  <path d="M10.7275 24.8457L14.1224 23.1885L11.1896 20.8984L10.7275 24.8457Z" fill="#E4761B" stroke="#E4761B"
    stroke-linecap="round" stroke-linejoin="round" />
  <path d="M17.8682 23.1885L21.2731 24.8457L20.801 20.8984L17.8682 23.1885Z" fill="#E4761B" stroke="#E4761B"
    stroke-linecap="round" stroke-linejoin="round" />
  <path d="M21.2731 24.8457L17.8682 23.1885L18.1394 25.4082L18.1092 26.3423L21.2731 24.8457Z" fill="#D7C1B3"
    stroke="#D7C1B3" stroke-linecap="round" stroke-linejoin="round" />
  <path d="M10.7266 24.8457L13.8904 26.3423L13.8703 25.4082L14.1214 23.1885L10.7266 24.8457Z" fill="#D7C1B3"
    stroke="#D7C1B3" stroke-linecap="round" stroke-linejoin="round" />
  <path d="M13.9408 19.4322L11.1084 18.5986L13.1071 17.6846L13.9408 19.4322Z" fill="#233447" stroke="#233447"
    stroke-linecap="round" stroke-linejoin="round" />
  <path d="M18.0488 19.4322L18.8825 17.6846L20.8913 18.5986L18.0488 19.4322Z" fill="#233447" stroke="#233447"
    stroke-linecap="round" stroke-linejoin="round" />
  <path d="M10.7271 24.8464L11.2092 20.7686L8.06543 20.8589L10.7271 24.8464Z" fill="#CD6116" stroke="#CD6116"
    stroke-linecap="round" stroke-linejoin="round" />
  <path d="M20.791 20.7686L21.2731 24.8464L23.9348 20.8589L20.791 20.7686Z" fill="#CD6116" stroke="#CD6116"
    stroke-linecap="round" stroke-linejoin="round" />
  <path d="M23.1818 16.2783L17.5371 16.5294L18.0594 19.4321L18.893 17.6845L20.9018 18.5985L23.1818 16.2783Z"
    fill="#CD6116" stroke="#CD6116" stroke-linecap="round" stroke-linejoin="round" />
  <path d="M11.1084 18.5985L13.1172 17.6845L13.9408 19.4321L14.4731 16.5294L8.81836 16.2783L11.1084 18.5985Z"
    fill="#CD6116" stroke="#CD6116" stroke-linecap="round" stroke-linejoin="round" />
  <path d="M8.81836 16.2783L11.1887 20.8985L11.1084 18.5985L8.81836 16.2783Z" fill="#E4751F" stroke="#E4751F"
    stroke-linecap="round" stroke-linejoin="round" />
  <path d="M20.9012 18.5985L20.8008 20.8985L23.1812 16.2783L20.9012 18.5985Z" fill="#E4751F" stroke="#E4751F"
    stroke-linecap="round" stroke-linejoin="round" />
  <path d="M14.4728 16.5293L13.9404 19.432L14.6033 22.857L14.754 18.3472L14.4728 16.5293Z" fill="#E4751F"
    stroke="#E4751F" stroke-linecap="round" stroke-linejoin="round" />
  <path d="M17.5368 16.5293L17.2656 18.3372L17.3862 22.857L18.0591 19.432L17.5368 16.5293Z" fill="#E4751F"
    stroke="#E4751F" stroke-linecap="round" stroke-linejoin="round" />
  <path d="M18.0587 19.4323L17.3857 22.8573L17.8678 23.1887L20.8007 20.8987L20.9011 18.5986L18.0587 19.4323Z"
    fill="#F6851B" stroke="#F6851B" stroke-linecap="round" stroke-linejoin="round" />
  <path d="M11.1084 18.5986L11.1888 20.8987L14.1216 23.1887L14.6037 22.8573L13.9408 19.4323L11.1084 18.5986Z"
    fill="#F6851B" stroke="#F6851B" stroke-linecap="round" stroke-linejoin="round" />
  <path
    d="M18.1089 26.3422L18.139 25.4082L17.8879 25.1872H14.1013L13.8703 25.4082L13.8904 26.3422L10.7266 24.8457L11.8314 25.7497L14.0712 27.3065H17.918L20.1679 25.7497L21.2727 24.8457L18.1089 26.3422Z"
    fill="#C0AD9E" stroke="#C0AD9E" stroke-linecap="round" stroke-linejoin="round" />
  <path
    d="M17.8686 23.1879L17.3865 22.8564H14.6043L14.1222 23.1879L13.8711 25.4076L14.1021 25.1866H17.8887L18.1398 25.4076L17.8686 23.1879Z"
    fill="#161616" stroke="#161616" stroke-linecap="round" stroke-linejoin="round" />
  <path
    d="M27.9523 11.4671L28.806 7.36915L27.5304 3.5625L17.8682 10.7339L21.5844 13.8776L26.8374 15.4144L28.0025 14.0584L27.5003 13.6968L28.3038 12.9636L27.6811 12.4815L28.4846 11.8688L27.9523 11.4671Z"
    fill="#763D16" stroke="#763D16" stroke-linecap="round" stroke-linejoin="round" />
  <path
    d="M3.19434 7.36915L4.04807 11.4671L3.5057 11.8688L4.30921 12.4815L3.69653 12.9636L4.50005 13.6968L3.99785 14.0584L5.1529 15.4144L10.4059 13.8776L14.1221 10.7339L4.45987 3.5625L3.19434 7.36915Z"
    fill="#763D16" stroke="#763D16" stroke-linecap="round" stroke-linejoin="round" />
  <path d="M26.8372 15.4147L21.5842 13.8779L23.1812 16.2784L20.8008 20.8986L23.9345 20.8585H28.6049L26.8372 15.4147Z"
    fill="#F6851B" stroke="#F6851B" stroke-linecap="round" stroke-linejoin="round" />
  <path d="M10.4059 13.8779L5.15292 15.4147L3.40527 20.8585H8.06566L11.1893 20.8986L8.81896 16.2784L10.4059 13.8779Z"
    fill="#F6851B" stroke="#F6851B" stroke-linecap="round" stroke-linejoin="round" />
  <path
    d="M17.5368 16.5299L17.8682 10.7345L19.3949 6.60645H12.6152L14.1218 10.7345L14.4734 16.5299L14.5939 18.3579L14.6039 22.8575H17.3861L17.4062 18.3579L17.5368 16.5299Z"
    fill="#F6851B" stroke="#F6851B" stroke-linecap="round" stroke-linejoin="round" />
</svg>