<svg width="30" height="31" viewBox="0 0 30 31" fill="none" xmlns="http://www.w3.org/2000/svg">
<path d="M15 30.5C23.2843 30.5 30 23.7843 30 15.5C30 7.21573 23.2843 0.5 15 0.5C6.71573 0.5 0 7.21573 0 15.5C0 23.7843 6.71573 30.5 15 30.5Z" fill="url(#paint0_linear_632_7778)"/>
<path fill-rule="evenodd" clip-rule="evenodd" d="M6.78977 15.341C11.1626 13.4358 14.0785 12.1798 15.5374 11.573C19.7031 9.84032 20.5687 9.53934 21.1329 9.5294C21.257 9.52722 21.5344 9.55797 21.7141 9.7038C21.8659 9.82693 21.9076 9.99327 21.9276 10.11C21.9476 10.2268 21.9725 10.4927 21.9527 10.7005C21.7269 13.0724 20.7502 18.8282 20.2533 21.4847C20.043 22.6088 19.629 22.9857 19.2281 23.0226C18.3571 23.1027 17.6956 22.4469 16.8519 21.8939C15.5317 21.0285 14.7859 20.4898 13.5044 19.6453C12.0235 18.6693 12.9835 18.133 13.8275 17.2563C14.0484 17.0269 17.8864 13.536 17.9607 13.2193C17.9699 13.1797 17.9786 13.0321 17.8909 12.9541C17.8032 12.8761 17.6737 12.9028 17.5803 12.924C17.4479 12.9541 15.3389 14.348 11.2532 17.106C10.6546 17.517 10.1123 17.7173 9.62652 17.7068C9.09094 17.6953 8.0607 17.404 7.29483 17.1551C6.35545 16.8497 5.60886 16.6883 5.67387 16.1697C5.70773 15.8996 6.0797 15.6233 6.78977 15.341Z" fill="white"/>
<defs>
<linearGradient id="paint0_linear_632_7778" x1="15" y1="0.5" x2="15" y2="30.2775" gradientUnits="userSpaceOnUse">
<stop stop-color="#2AABEE"/>
<stop offset="1" stop-color="#229ED9"/>
</linearGradient>
</defs>
</svg>
