<svg width="25" height="25" viewBox="0 0 25 25" fill="none" xmlns="http://www.w3.org/2000/svg">
  <g clip-path="url(#clip0_6_48092)">
    <path
      d="M12.6873 24.695C19.4786 24.695 24.9841 19.1896 24.9841 12.3983C24.9841 5.60699 19.4786 0.101562 12.6873 0.101562C5.89605 0.101562 0.390625 5.60699 0.390625 12.3983C0.390625 19.1896 5.89605 24.695 12.6873 24.695Z"
      fill="url(#paint0_linear_6_48092)" />
    <path fill-rule="evenodd" clip-rule="evenodd"
      d="M5.9571 12.2687C9.54184 10.7069 11.9322 9.67722 13.1283 9.17975C16.5432 7.75936 17.2528 7.51263 17.7153 7.50448C17.817 7.50269 18.0445 7.5279 18.1918 7.64745C18.3162 7.74839 18.3504 7.88475 18.3668 7.98046C18.3832 8.07616 18.4036 8.29418 18.3874 8.46454C18.2023 10.4089 17.4016 15.1275 16.9942 17.3052C16.8218 18.2267 16.4824 18.5357 16.1538 18.5659C15.4397 18.6317 14.8975 18.094 14.2059 17.6406C13.1236 16.9312 12.5122 16.4896 11.4616 15.7973C10.2476 14.9972 11.0346 14.5575 11.7265 13.8389C11.9076 13.6508 15.0539 10.789 15.1148 10.5294C15.1224 10.4969 15.1295 10.3759 15.0576 10.312C14.9857 10.2481 14.8795 10.2699 14.803 10.2873C14.6944 10.312 12.9655 11.4547 9.61614 13.7156C9.12538 14.0526 8.68087 14.2168 8.28261 14.2082C7.84355 14.1987 6.99898 13.9599 6.37113 13.7558C5.60105 13.5055 4.989 13.3732 5.0423 12.9481C5.07006 12.7266 5.37499 12.5002 5.9571 12.2687Z"
      fill="white" />
  </g>
  <defs>
    <linearGradient id="paint0_linear_6_48092" x1="12.6873" y1="0.101562" x2="12.6873" y2="24.5126"
      gradientUnits="userSpaceOnUse">
      <stop stop-color="#2AABEE" />
      <stop offset="1" stop-color="#229ED9" />
    </linearGradient>
    <clipPath id="clip0_6_48092">
      <rect width="24.5934" height="24.5934" fill="white" transform="translate(0.390625 0.101562)" />
    </clipPath>
  </defs>
</svg>