<svg width="30" height="25" viewBox="0 0 30 25" fill="none" xmlns="http://www.w3.org/2000/svg">
<path d="M9.4344 24.6891C20.7552 24.6891 26.9472 15.3099 26.9472 7.17626C26.9472 6.90986 26.9472 6.64466 26.9292 6.38066C28.1338 5.50935 29.1736 4.43052 30 3.19466C28.8767 3.69266 27.685 4.0191 26.4648 4.16306C27.7498 3.39392 28.7114 2.18404 29.1708 0.75866C27.9626 1.47567 26.6408 1.98094 25.2624 2.25266C24.3344 1.26588 23.107 0.612462 21.7702 0.393516C20.4335 0.17457 19.0618 0.402304 17.8675 1.04148C16.6731 1.68065 15.7228 2.69563 15.1634 3.92935C14.6041 5.16306 14.4669 6.54674 14.7732 7.86626C12.3261 7.74351 9.9322 7.10755 7.74682 5.99967C5.56144 4.89178 3.63345 3.33674 2.088 1.43546C1.30091 2.79045 1.05984 4.3945 1.41387 5.92099C1.76791 7.44748 2.69043 8.78165 3.9936 9.65186C3.01404 9.62316 2.05581 9.3589 1.2 8.88146V8.95946C1.20039 10.3805 1.69231 11.7577 2.59234 12.8574C3.49236 13.9571 4.74508 14.7117 6.138 14.9931C5.23185 15.2402 4.28109 15.2764 3.3588 15.0987C3.75227 16.3216 4.51804 17.391 5.54905 18.1573C6.58006 18.9237 7.82478 19.3488 9.1092 19.3731C7.83305 20.3762 6.37164 21.1178 4.80859 21.5556C3.24554 21.9933 1.61152 22.1186 0 21.9243C2.81479 23.7305 6.08991 24.6887 9.4344 24.6843" fill="#1DA1F2"/>
</svg>
